<mxfile host="app.diagrams.net" modified="2024-05-06T05:50:03.144Z" agent="Mozilla/5.0 (Macintosh; Intel Mac OS X 10_15_7) AppleWebKit/605.1.15 (KHTML, like Gecko) Version/16.2 Safari/605.1.15" etag="Nwj9mR4HKKfa9UxErDef" version="24.3.1" type="github">
  <diagram id="C5RBs43oDa-KdzZeNtuy" name="Page-1">
    <mxGraphModel dx="954" dy="647" grid="1" gridSize="10" guides="1" tooltips="1" connect="1" arrows="1" fold="1" page="1" pageScale="1" pageWidth="827" pageHeight="1169" math="0" shadow="0">
      <root>
        <mxCell id="WIyWlLk6GJQsqaUBKTNV-0" />
        <mxCell id="WIyWlLk6GJQsqaUBKTNV-1" parent="WIyWlLk6GJQsqaUBKTNV-0" />
        <mxCell id="OyEdLZU8aLM32vGG7SJD-14" value="" style="edgeStyle=orthogonalEdgeStyle;rounded=0;orthogonalLoop=1;jettySize=auto;html=1;" parent="WIyWlLk6GJQsqaUBKTNV-1" source="WIyWlLk6GJQsqaUBKTNV-3" target="OyEdLZU8aLM32vGG7SJD-13" edge="1">
          <mxGeometry relative="1" as="geometry" />
        </mxCell>
        <mxCell id="WIyWlLk6GJQsqaUBKTNV-3" value="&lt;font style=&quot;font-size: 15px;&quot; face=&quot;Georgia&quot;&gt;Dataset&lt;/font&gt;" style="rounded=1;whiteSpace=wrap;html=1;fontSize=12;glass=0;strokeWidth=1;shadow=0;" parent="WIyWlLk6GJQsqaUBKTNV-1" vertex="1">
          <mxGeometry x="320" y="80" width="120" height="40" as="geometry" />
        </mxCell>
        <mxCell id="OyEdLZU8aLM32vGG7SJD-6" value="" style="edgeStyle=orthogonalEdgeStyle;rounded=0;orthogonalLoop=1;jettySize=auto;html=1;" parent="WIyWlLk6GJQsqaUBKTNV-1" target="OyEdLZU8aLM32vGG7SJD-5" edge="1">
          <mxGeometry relative="1" as="geometry">
            <mxPoint x="440" y="170" as="sourcePoint" />
          </mxGeometry>
        </mxCell>
        <mxCell id="OyEdLZU8aLM32vGG7SJD-20" value="" style="edgeStyle=orthogonalEdgeStyle;rounded=0;orthogonalLoop=1;jettySize=auto;html=1;" parent="WIyWlLk6GJQsqaUBKTNV-1" source="OyEdLZU8aLM32vGG7SJD-5" target="OyEdLZU8aLM32vGG7SJD-19" edge="1">
          <mxGeometry relative="1" as="geometry" />
        </mxCell>
        <mxCell id="OyEdLZU8aLM32vGG7SJD-5" value="&lt;div style=&quot;font-size: 14px;&quot;&gt;&lt;font style=&quot;font-size: 14px;&quot;&gt;&lt;span style=&quot;font-family: Georgia;&quot;&gt;Fine Tune BERT&lt;/span&gt;&lt;/font&gt;&lt;/div&gt;&lt;div style=&quot;font-size: 14px;&quot;&gt;&lt;font style=&quot;font-size: 14px;&quot;&gt;&lt;span style=&quot;font-family: Georgia;&quot;&gt;&amp;nbsp;by MLM&lt;/span&gt;&lt;span style=&quot;font-family: YG_AiRH8RdLS5TOYh-Wq;&quot;&gt;&amp;nbsp;then Save&amp;nbsp;&lt;/span&gt;&lt;/font&gt;&lt;/div&gt;" style="whiteSpace=wrap;html=1;rounded=1;glass=0;strokeWidth=1;shadow=0;" parent="WIyWlLk6GJQsqaUBKTNV-1" vertex="1">
          <mxGeometry x="447" y="200" width="130" height="40" as="geometry" />
        </mxCell>
        <mxCell id="OyEdLZU8aLM32vGG7SJD-16" value="" style="edgeStyle=orthogonalEdgeStyle;rounded=0;orthogonalLoop=1;jettySize=auto;html=1;" parent="WIyWlLk6GJQsqaUBKTNV-1" source="OyEdLZU8aLM32vGG7SJD-13" target="OyEdLZU8aLM32vGG7SJD-15" edge="1">
          <mxGeometry relative="1" as="geometry" />
        </mxCell>
        <mxCell id="OyEdLZU8aLM32vGG7SJD-13" value="&lt;font style=&quot;font-size: 14px;&quot; face=&quot;Georgia&quot;&gt;Preprocessing&lt;/font&gt;" style="rounded=1;whiteSpace=wrap;html=1;fontSize=12;glass=0;strokeWidth=1;shadow=0;" parent="WIyWlLk6GJQsqaUBKTNV-1" vertex="1">
          <mxGeometry x="320" y="150" width="120" height="40" as="geometry" />
        </mxCell>
        <mxCell id="OyEdLZU8aLM32vGG7SJD-18" value="" style="edgeStyle=orthogonalEdgeStyle;rounded=0;orthogonalLoop=1;jettySize=auto;html=1;" parent="WIyWlLk6GJQsqaUBKTNV-1" source="OyEdLZU8aLM32vGG7SJD-15" target="OyEdLZU8aLM32vGG7SJD-17" edge="1">
          <mxGeometry relative="1" as="geometry" />
        </mxCell>
        <mxCell id="OyEdLZU8aLM32vGG7SJD-15" value="&lt;font style=&quot;font-size: 14px;&quot; face=&quot;Georgia&quot;&gt;Train in TF-IDF&lt;/font&gt;" style="rounded=1;whiteSpace=wrap;html=1;fontSize=12;glass=0;strokeWidth=1;shadow=0;" parent="WIyWlLk6GJQsqaUBKTNV-1" vertex="1">
          <mxGeometry x="190" y="200" width="120" height="40" as="geometry" />
        </mxCell>
        <mxCell id="OyEdLZU8aLM32vGG7SJD-28" value="" style="edgeStyle=orthogonalEdgeStyle;rounded=0;orthogonalLoop=1;jettySize=auto;html=1;" parent="WIyWlLk6GJQsqaUBKTNV-1" source="OyEdLZU8aLM32vGG7SJD-17" target="OyEdLZU8aLM32vGG7SJD-27" edge="1">
          <mxGeometry relative="1" as="geometry" />
        </mxCell>
        <mxCell id="OyEdLZU8aLM32vGG7SJD-17" value="&lt;font style=&quot;font-size: 14px;&quot; face=&quot;Georgia&quot;&gt;Calculate Embeddings&lt;/font&gt;" style="rounded=1;whiteSpace=wrap;html=1;fontSize=12;glass=0;strokeWidth=1;shadow=0;" parent="WIyWlLk6GJQsqaUBKTNV-1" vertex="1">
          <mxGeometry x="190" y="280" width="120" height="40" as="geometry" />
        </mxCell>
        <mxCell id="OyEdLZU8aLM32vGG7SJD-22" value="" style="edgeStyle=orthogonalEdgeStyle;rounded=0;orthogonalLoop=1;jettySize=auto;html=1;" parent="WIyWlLk6GJQsqaUBKTNV-1" source="OyEdLZU8aLM32vGG7SJD-19" target="OyEdLZU8aLM32vGG7SJD-21" edge="1">
          <mxGeometry relative="1" as="geometry" />
        </mxCell>
        <mxCell id="OyEdLZU8aLM32vGG7SJD-19" value="&lt;font style=&quot;font-size: 14px;&quot; face=&quot;Georgia&quot;&gt;Restore Model&lt;/font&gt;" style="whiteSpace=wrap;html=1;rounded=1;glass=0;strokeWidth=1;shadow=0;" parent="WIyWlLk6GJQsqaUBKTNV-1" vertex="1">
          <mxGeometry x="447" y="280" width="130" height="40" as="geometry" />
        </mxCell>
        <mxCell id="OyEdLZU8aLM32vGG7SJD-24" value="" style="edgeStyle=orthogonalEdgeStyle;rounded=0;orthogonalLoop=1;jettySize=auto;html=1;" parent="WIyWlLk6GJQsqaUBKTNV-1" source="OyEdLZU8aLM32vGG7SJD-21" target="OyEdLZU8aLM32vGG7SJD-23" edge="1">
          <mxGeometry relative="1" as="geometry" />
        </mxCell>
        <mxCell id="OyEdLZU8aLM32vGG7SJD-21" value="&lt;font style=&quot;font-size: 14px;&quot; face=&quot;Georgia&quot;&gt;Calculate Embeddiings&lt;/font&gt;" style="whiteSpace=wrap;html=1;rounded=1;glass=0;strokeWidth=1;shadow=0;" parent="WIyWlLk6GJQsqaUBKTNV-1" vertex="1">
          <mxGeometry x="447" y="360" width="130" height="40" as="geometry" />
        </mxCell>
        <mxCell id="OyEdLZU8aLM32vGG7SJD-32" value="" style="edgeStyle=orthogonalEdgeStyle;rounded=0;orthogonalLoop=1;jettySize=auto;html=1;entryX=0.85;entryY=0.55;entryDx=0;entryDy=0;entryPerimeter=0;" parent="WIyWlLk6GJQsqaUBKTNV-1" target="OyEdLZU8aLM32vGG7SJD-29" edge="1">
          <mxGeometry relative="1" as="geometry">
            <mxPoint x="510.0588235294117" y="480" as="sourcePoint" />
            <mxPoint x="345" y="518" as="targetPoint" />
            <Array as="points">
              <mxPoint x="510" y="518" />
            </Array>
          </mxGeometry>
        </mxCell>
        <mxCell id="OyEdLZU8aLM32vGG7SJD-23" value="&lt;font style=&quot;font-size: 13px;&quot; face=&quot;Georgia&quot;&gt;Locate Keyword&#39;s&lt;/font&gt;&lt;div&gt;&lt;font style=&quot;font-size: 13px;&quot; face=&quot;Georgia&quot;&gt;&amp;nbsp;Top N Close Words&lt;/font&gt;&lt;/div&gt;" style="whiteSpace=wrap;html=1;rounded=1;glass=0;strokeWidth=1;shadow=0;" parent="WIyWlLk6GJQsqaUBKTNV-1" vertex="1">
          <mxGeometry x="447" y="440" width="130" height="40" as="geometry" />
        </mxCell>
        <mxCell id="OyEdLZU8aLM32vGG7SJD-27" value="&lt;font style=&quot;font-size: 13px;&quot; face=&quot;Georgia&quot;&gt;Locate &amp;nbsp;Keyword&#39;s Top N Close Words&lt;/font&gt;" style="rounded=1;whiteSpace=wrap;html=1;fontSize=12;glass=0;strokeWidth=1;shadow=0;" parent="WIyWlLk6GJQsqaUBKTNV-1" vertex="1">
          <mxGeometry x="190" y="358" width="120" height="40" as="geometry" />
        </mxCell>
        <mxCell id="OyEdLZU8aLM32vGG7SJD-37" value="" style="edgeStyle=orthogonalEdgeStyle;rounded=0;orthogonalLoop=1;jettySize=auto;html=1;" parent="WIyWlLk6GJQsqaUBKTNV-1" source="OyEdLZU8aLM32vGG7SJD-29" edge="1">
          <mxGeometry relative="1" as="geometry">
            <mxPoint x="380" y="557.9999999999998" as="targetPoint" />
          </mxGeometry>
        </mxCell>
        <mxCell id="OyEdLZU8aLM32vGG7SJD-29" value="" style="shape=waypoint;sketch=0;size=6;pointerEvents=1;points=[];resizable=0;rotatable=0;perimeter=centerPerimeter;snapToPoint=1;rounded=1;glass=0;strokeWidth=3;shadow=0;" parent="WIyWlLk6GJQsqaUBKTNV-1" vertex="1">
          <mxGeometry x="370" y="508" width="20" height="20" as="geometry" />
        </mxCell>
        <mxCell id="OyEdLZU8aLM32vGG7SJD-35" value="" style="endArrow=classic;html=1;rounded=0;" parent="WIyWlLk6GJQsqaUBKTNV-1" edge="1">
          <mxGeometry width="50" height="50" relative="1" as="geometry">
            <mxPoint x="247" y="398" as="sourcePoint" />
            <mxPoint x="380" y="518" as="targetPoint" />
            <Array as="points">
              <mxPoint x="247" y="518" />
            </Array>
          </mxGeometry>
        </mxCell>
        <mxCell id="OyEdLZU8aLM32vGG7SJD-41" value="" style="edgeStyle=orthogonalEdgeStyle;rounded=0;orthogonalLoop=1;jettySize=auto;html=1;" parent="WIyWlLk6GJQsqaUBKTNV-1" source="OyEdLZU8aLM32vGG7SJD-38" target="OyEdLZU8aLM32vGG7SJD-40" edge="1">
          <mxGeometry relative="1" as="geometry" />
        </mxCell>
        <mxCell id="OyEdLZU8aLM32vGG7SJD-38" value="&lt;font style=&quot;font-size: 14px;&quot; face=&quot;Georgia&quot;&gt;Compare Two Results&lt;/font&gt;" style="whiteSpace=wrap;html=1;rounded=1;glass=0;strokeWidth=1;shadow=0;" parent="WIyWlLk6GJQsqaUBKTNV-1" vertex="1">
          <mxGeometry x="317" y="560" width="130" height="40" as="geometry" />
        </mxCell>
        <mxCell id="rxzBvH736Up1jcttHPpc-1" value="" style="edgeStyle=orthogonalEdgeStyle;rounded=0;orthogonalLoop=1;jettySize=auto;html=1;" edge="1" parent="WIyWlLk6GJQsqaUBKTNV-1" source="OyEdLZU8aLM32vGG7SJD-40" target="rxzBvH736Up1jcttHPpc-0">
          <mxGeometry relative="1" as="geometry" />
        </mxCell>
        <mxCell id="OyEdLZU8aLM32vGG7SJD-40" value="&lt;font style=&quot;font-size: 14px;&quot; face=&quot;Georgia&quot;&gt;Best Model&#39;s Embedding Analysis&lt;/font&gt;" style="whiteSpace=wrap;html=1;rounded=1;glass=0;strokeWidth=1;shadow=0;" parent="WIyWlLk6GJQsqaUBKTNV-1" vertex="1">
          <mxGeometry x="317" y="630" width="130" height="40" as="geometry" />
        </mxCell>
        <mxCell id="rxzBvH736Up1jcttHPpc-0" value="&lt;font face=&quot;Georgia&quot;&gt;&lt;span style=&quot;font-size: 14px;&quot;&gt;End&lt;/span&gt;&lt;/font&gt;" style="whiteSpace=wrap;html=1;rounded=1;glass=0;strokeWidth=1;shadow=0;" vertex="1" parent="WIyWlLk6GJQsqaUBKTNV-1">
          <mxGeometry x="317" y="700" width="130" height="40" as="geometry" />
        </mxCell>
      </root>
    </mxGraphModel>
  </diagram>
</mxfile>
